<svg display="none" xmlns="http://www.w3.org/2000/svg">
	<symbol id="ferrari" viewBox="0 0 157 43">
				<path d="M0 38.1089C0 37.76 0.282723 37.4773 0.63168 37.4773H1.81746C2.72634 37.4773 4.54441 37.2749 4.54441 34.8457V12.9813C4.54441 11.6652 4.45334 8.52733 2.18113 8.52733H0.961932C0.532328 8.52733 0.228141 8.10784 0.361529 7.6994L2.31207 1.72236C2.39701 1.46233 2.63926 1.28662 2.91247 1.28662H141.646C141.995 1.28662 142.278 1.56935 142.278 1.9183V7.89534C142.278 8.2443 141.995 8.52702 141.646 8.52702H13.6335C12.4521 8.52702 10.9072 8.8306 10.9072 11.4622V18.3457C11.1798 19.1552 12.2705 19.4588 12.8157 19.4588C13.3272 19.4588 15.0364 19.3701 15.248 16.6064C15.2732 16.2761 15.5402 16.0173 15.8714 16.0173H17.3651C17.714 16.0173 17.9967 16.3001 17.9967 16.649V26.6213C17.9967 26.9702 17.714 27.2529 17.3651 27.2529H15.8193C15.5249 27.2529 15.2753 27.0496 15.2054 26.7632C14.9634 25.7707 14.0635 24.5257 12.9068 24.4184C11.8161 24.3169 10.9072 24.7219 10.9072 26.3416V34.8445C10.9072 35.7555 11.9072 37.476 14.2701 37.476H15.2744C15.6233 37.476 15.9061 37.7588 15.9061 38.1077V42.0324C15.9061 42.3814 15.6233 42.6641 15.2744 42.6641H0.63168C0.282723 42.6641 0 42.3814 0 42.0324V38.1089Z" fill="/*#C1C1C1*/"/>
                <path d="M92.7784 16.8281V27.9635H86.4163V22.5868C86.4163 22.5868 86.1446 20.663 85.2348 20.5621C85.1685 20.5557 85.0959 20.559 85.0167 20.5747C83.9996 20.7611 81.9178 22.6595 81.3269 23.5978V35.7568C81.3269 37.3583 82.5274 37.9112 83.2192 38.0977C83.4973 38.1703 83.6899 38.4199 83.6899 38.7072V42.0337C83.6899 42.3826 83.4072 42.6654 83.0582 42.6654H73.2338C72.8863 42.6654 72.6021 42.3811 72.6021 42.0337V38.6714C72.6021 38.3561 72.8351 38.0937 73.147 38.0471C74.054 37.9118 74.8884 37.378 74.9651 35.8582V18.7523C74.9651 18.4996 74.7851 18.0164 74.3965 17.5993C74.0936 17.2718 73.6637 16.983 73.0964 16.8744C72.806 16.8189 72.6024 16.5546 72.6024 16.259V14.4247C72.6024 14.0757 72.8851 13.793 73.2341 13.793H80.1743C80.4493 13.793 80.6808 13.9751 80.7759 14.2336C81.0126 14.8776 81.6992 15.4473 82.1457 15.6126C82.7838 15.1073 86.1449 12.9813 88.7795 12.9813C91.417 12.9804 92.7784 14.4998 92.7784 16.8281Z" fill="/*#C1C1C1*/"/>
                <path d="M156.782 14.424V16.2657C156.782 16.5625 156.573 16.8185 156.28 16.8817C155.288 17.0933 154.419 17.9114 154.419 18.954V35.7564C154.419 36.9664 155.351 37.8823 156.302 38.1224C156.583 38.1951 156.782 38.4447 156.782 38.7354V42.0333C156.782 42.3822 156.499 42.665 156.15 42.665H146.326C145.977 42.665 145.694 42.3822 145.694 42.0333V38.5676C145.694 38.2947 145.868 38.0543 146.127 37.9688C146.331 37.9016 146.585 37.8007 146.841 37.6551C147.422 37.3267 148.013 36.7707 148.057 35.8575V18.7519C148.057 18.4992 147.877 18.016 147.488 17.5989C147.185 17.2714 146.755 16.9826 146.188 16.874C145.898 16.8185 145.694 16.5542 145.694 16.2586V14.4243C145.694 14.0753 145.977 13.7926 146.326 13.7926H156.15C156.499 13.7923 156.782 14.0753 156.782 14.424Z" fill="/*#C1C1C1*/"/>
                <path d="M68.2398 16.828V27.3317C68.2398 27.6806 67.9571 27.9634 67.6081 27.9634H62.5096C62.1606 27.9634 61.8779 27.6806 61.8779 27.3317V22.587C61.8779 22.587 61.6062 20.6632 60.6964 20.5623C60.6333 20.5558 60.5606 20.5592 60.4815 20.5749C59.5214 20.7472 57.619 22.4383 56.9082 23.4217C56.83 23.53 56.7889 23.6591 56.7889 23.7924V35.7566C56.7889 36.4674 57.1078 37.074 57.5629 37.5036C57.8855 37.8081 58.2746 38.0239 58.6686 38.1233C58.9513 38.1951 59.1519 38.4437 59.1519 38.7354V42.0333C59.1519 42.3822 58.8692 42.665 58.5202 42.665H48.6958C48.3468 42.665 48.0641 42.3822 48.0641 42.0333V38.671C48.0641 38.3557 48.2971 38.0932 48.6093 38.0466C48.9726 37.9927 49.3237 37.8746 49.6215 37.6551C50.0637 37.3266 50.3795 36.7707 50.427 35.8575V18.7519C50.427 18.4992 50.2437 18.0159 49.8585 17.5989C49.5571 17.2757 49.1364 16.9905 48.5814 16.8783C48.2833 16.8182 48.0644 16.5628 48.0644 16.2586V14.4243C48.0644 14.0753 48.3471 13.7926 48.6961 13.7926H55.6335C55.9086 13.7926 56.1398 13.9744 56.2348 14.2326C56.4722 14.8769 57.1609 15.4466 57.6073 15.6119C58.2424 15.1065 61.6065 12.9806 64.2412 12.9806C66.8749 12.9803 68.2398 14.4997 68.2398 16.828Z" fill="/*#C1C1C1*/"/>
                <path d="M141.97 16.828V27.9634H135.608V22.5867C135.608 22.5867 135.333 20.6629 134.426 20.562C134.353 20.5525 134.268 20.5589 134.176 20.581C134.173 20.5779 134.17 20.581 134.167 20.581C133.131 20.8116 131.1 22.6723 130.515 23.5977V35.7566C130.515 36.5938 130.809 37.1436 131.188 37.5036C131.567 37.8636 132.031 38.0344 132.379 38.1132C132.67 38.1828 132.878 38.4321 132.878 38.7323V42.0333C132.878 42.3807 132.597 42.665 132.246 42.665H122.422C122.075 42.665 121.79 42.3807 121.79 42.0333V38.6688C121.79 38.356 122.024 38.0939 122.337 38.0466C123.243 37.9108 124.077 37.3769 124.153 35.8575V18.7519C124.153 18.0822 123.863 17.6461 123.49 17.3619C123.111 17.0776 122.65 16.9448 122.302 16.8817C122.006 16.828 121.791 16.5628 121.791 16.2595V14.4243C121.791 14.0738 122.075 13.7926 122.422 13.7926H129.343C129.637 13.7926 129.89 13.9947 129.96 14.2789C130.089 14.8192 130.437 15.6119 131.334 15.6119C131.972 15.1065 135.333 12.9806 137.97 12.9806C140.605 12.9803 141.97 14.4997 141.97 16.828Z" fill="/*#C1C1C1*/"/>
                <path d="M37.5328 32.6182C37.1839 32.6182 36.9011 32.9009 36.9011 33.2499V33.6326V34.2885C36.9011 35.4016 36.7196 36.0112 33.72 36.0112C30.7205 36.0112 29.8119 33.7844 29.8119 32.1644V30.0848V29.1762C29.8119 28.6702 30.1756 28.8702 30.8119 28.8702H42.6316C42.9806 28.8702 43.2633 28.5874 43.2633 28.2385V20.5725C43.2633 17.2322 42.627 16.2197 41.3548 14.803C40.0822 13.3857 35.6289 12.981 33.6293 12.981C28.5397 12.981 26.9034 13.7908 25.4496 15.1066C23.9952 16.4227 23.45 19.1555 23.45 21.1802V32.6185C23.45 35.6552 24.1004 37.8253 25.7235 39.8378C27.9843 42.6408 32.7207 42.6402 33.8114 42.6402C34.9018 42.6402 38.5377 42.7416 41.1732 40.6157C43.2915 38.9074 43.355 34.7791 43.2986 33.2248C43.2863 32.8859 43.0063 32.6188 42.6672 32.6188L37.5328 32.6182ZM29.8116 20.7715C29.8116 19.7629 30.266 18.2497 33.4471 18.2497C36.6282 18.2497 36.9008 19.889 36.9008 20.7715V23.0412C36.9008 23.4193 36.4464 23.7977 35.8104 23.7977H30.902C30.3565 23.7977 29.8116 23.4825 29.8116 23.1041V20.7715Z" fill="/*#C1C1C1*/"/>
                <path d="M116.156 35.7559V20.5723C116.156 18.2443 116.066 15.8148 113.884 14.0939C111.703 12.3734 108.158 12.4743 106.795 12.4743C105.432 12.4743 100.888 12.4743 98.7965 15.1058C96.7062 17.7377 97.0698 20.2681 97.0698 21.2804H103.567C103.567 21.2804 103.432 20.1991 104.25 19.2881C105.073 18.3713 107.25 17.3649 108.931 18.9845C109.55 19.5816 109.794 20.3512 109.794 21.2117V23.2036C109.794 23.6087 109.43 24.2158 108.976 24.2158C108.976 24.2158 100.705 24.4185 99.251 25.6331C97.7966 26.8477 96.5243 27.6573 96.5243 32.1115C96.5243 36.5655 97.524 39.8303 98.7055 40.7416C99.887 41.6526 100.432 42.6649 105.795 42.6649H118.519V38.1855C117.429 38.1855 116.156 37.1732 116.156 35.7559ZM109.794 35.7523C109.794 35.8906 109.43 36.0847 109.158 36.0847H106.022C103.795 36.0847 103.159 34.921 103.159 34.2007V32.0674C103.159 29.9893 106.704 30.0451 108.112 30.0451C109.521 30.0451 109.794 30.7654 109.794 31.2364V35.7523H109.794Z" fill="/*#C1C1C1*/"/>
                <path d="M151.239 8.4767C154.421 8.4767 157 6.65403 157 4.40604C157 2.15775 154.421 0.335083 151.239 0.335083C148.058 0.335083 145.479 2.15775 145.479 4.40604C145.479 6.65403 148.058 8.4767 151.239 8.4767Z" fill="/*#C1C1C1*/"/>
                <path d="M15.9054 38.1098V42.0333C15.9054 42.3807 15.6242 42.665 15.2738 42.665H12.4306V37.0452C12.9138 37.3073 13.5234 37.4778 14.2692 37.4778H15.2738C15.6242 37.4781 15.9054 37.759 15.9054 38.1098Z" fill="/*#C1C1C1*/"/>
                <path d="M14.5213 18.7206V25.4087C14.8576 25.8309 15.0984 26.3268 15.206 26.7711C15.2747 27.0544 15.5261 27.2528 15.8174 27.2528H17.3641C17.7131 27.2528 17.9958 26.9701 17.9958 26.6211V16.6489C17.9958 16.2999 17.7131 16.0172 17.3641 16.0172H15.8778C15.5513 16.0172 15.2731 16.2662 15.2489 16.5919C15.171 17.635 14.8806 18.298 14.5213 18.7206Z" fill="/*#C1C1C1*/"/>
                <path d="M138.803 1.28662V8.52733H141.646C141.995 8.52733 142.278 8.24461 142.278 7.89565V1.91861C142.278 1.56965 141.995 1.28693 141.646 1.28693H138.803V1.28662Z" fill="/*#C1C1C1*/"/>
                <path d="M88.7804 12.981C88.2119 12.981 87.6093 13.0837 87.0077 13.2441C88.5253 13.773 89.3048 15.0683 89.3048 16.8275V27.9622H92.7796V16.8275C92.7793 14.4991 91.4163 12.981 88.7804 12.981Z" fill="/*#C1C1C1*/"/>
                <path d="M154.419 18.954V35.7564C154.419 36.9664 155.351 37.8824 156.302 38.1225C156.583 38.1951 156.782 38.4447 156.782 38.7354V42.0333C156.782 42.3808 156.501 42.665 156.15 42.665H153.307V38.1856C152.217 38.1856 150.944 37.1746 150.944 35.7564V18.954C150.944 17.9115 151.813 17.0933 152.805 16.8818C153.099 16.8186 153.307 16.5629 153.307 16.2657V13.7924H156.15C156.501 13.7924 156.782 14.0735 156.782 14.424V16.2657C156.782 16.5625 156.573 16.8186 156.28 16.8818C155.288 17.0933 154.419 17.9115 154.419 18.954Z" fill="/*#C1C1C1*/"/>
                <path d="M56.9079 23.4215C56.8297 23.5297 56.7886 23.6588 56.7886 23.7922V35.7564C56.7886 36.4672 57.1075 37.0737 57.5626 37.5033C57.8852 37.8078 58.2743 38.0237 58.6683 38.123C58.951 38.1948 59.1516 38.4435 59.1516 38.7351V42.033C59.1516 42.382 58.8689 42.6647 58.5199 42.6647H55.6767V38.1853C54.5869 38.1853 53.3138 37.1743 53.3138 35.7561V26.1196C53.3138 22.5 58.9575 20.6378 60.4941 20.5583C60.4876 20.5614 60.4846 20.5679 60.4815 20.5743C59.5214 20.7469 57.6187 22.4381 56.9079 23.4215Z" fill="/*#C1C1C1*/"/>
                <path d="M81.3272 23.5973V35.7563C81.3272 37.3578 82.5277 37.9107 83.2195 38.0971C83.4976 38.1698 83.6902 38.4194 83.6902 38.7068V42.0332C83.6902 42.3821 83.4074 42.6649 83.0585 42.6649H80.2123V38.7353C80.2123 38.4436 80.0117 38.1947 79.729 38.1232C78.7787 37.8825 77.8493 36.9684 77.8493 35.7566V26.1185C77.8493 22.5014 83.4912 20.6376 85.0296 20.5588C85.0231 20.5619 85.0201 20.5683 85.017 20.5748C83.9996 20.7606 81.9181 22.6593 81.3272 23.5973Z" fill="/*#C1C1C1*/"/>
                <path d="M134.205 20.5587C134.198 20.5618 134.195 20.5682 134.192 20.5747C134.186 20.5747 134.183 20.5777 134.176 20.5811C134.173 20.578 134.17 20.5811 134.167 20.5811C133.131 20.8117 131.1 22.6724 130.515 23.5978V35.7568C130.515 36.5939 130.809 37.1437 131.188 37.5037C131.567 37.8637 132.031 38.0345 132.379 38.1133C132.67 38.1829 132.878 38.4322 132.878 38.7324V42.0334C132.878 42.3808 132.597 42.6651 132.246 42.6651H129.388V38.7355C129.388 38.4448 129.186 38.1952 128.904 38.1225C127.953 37.8824 127.025 36.9695 127.025 35.7564V26.1184C127.025 22.5016 132.667 20.6378 134.205 20.5587Z" fill="/*#C1C1C1*/"/>
                <path d="M64.2406 12.981C63.6721 12.981 63.0695 13.0837 62.4679 13.2441C63.9854 13.773 64.7649 15.0683 64.7649 16.8275V27.9622H67.6081C67.9571 27.9622 68.2398 27.6795 68.2398 27.3305V16.8278C68.2398 14.4991 66.8761 12.981 64.2406 12.981Z" fill="/*#C1C1C1*/"/>
                <path d="M137.97 12.981C137.401 12.981 136.798 13.0837 136.197 13.2441C137.714 13.773 138.494 15.0683 138.494 16.8275V27.9622H141.969V16.8275C141.969 14.4991 140.605 12.981 137.97 12.981Z" fill="/*#C1C1C1*/"/>
                <path d="M37.8796 14.7861C39.1522 16.2028 39.7881 17.2153 39.7881 20.5555V28.8535H42.6313C42.9803 28.8535 43.263 28.5708 43.263 28.2219V20.5559C43.263 17.2156 42.6267 16.2031 41.3545 14.7864C40.0819 13.3691 35.6286 12.9644 33.629 12.9644C32.8759 12.9644 32.1997 12.9828 31.5873 13.0171C33.7933 13.1643 36.8594 13.6491 37.8796 14.7861Z" fill="/*#C1C1C1*/"/>
                <path d="M42.6666 32.6179H39.7881C39.7881 32.6179 40.3337 38.4895 37.6975 40.6151C35.9607 42.0158 33.7936 42.4476 32.2028 42.5807C32.9304 42.6395 33.5097 42.6399 33.8105 42.6399C34.9009 42.6399 38.5367 42.741 41.1723 40.6154C43.2906 38.9071 43.3541 34.7788 43.2976 33.2242C43.286 32.885 43.006 32.6179 42.6666 32.6179Z" fill="/*#C1C1C1*/"/>
                <path d="M116.156 35.7559V20.5723C116.156 18.2443 116.066 15.8148 113.884 14.0939C111.703 12.3734 108.158 12.4743 106.795 12.4743C106.459 12.4743 105.929 12.4743 105.291 12.5138C106.906 12.6119 108.958 12.9489 110.41 14.0936C112.591 15.8145 112.682 18.244 112.682 20.572V35.7556C112.682 37.1726 113.954 38.1848 115.045 38.1848V42.6643H118.52V38.1848C117.429 38.1855 116.156 37.1732 116.156 35.7559Z" fill="/*#C1C1C1*/"/>
                <path d="M151.239 0.335083C150.634 0.335083 150.05 0.401623 149.502 0.524586C151.834 1.04526 153.525 2.58583 153.525 4.40604C153.525 6.22596 151.834 7.76652 149.502 8.2875C150.05 8.41016 150.634 8.4767 151.239 8.4767C154.421 8.4767 157 6.65403 157 4.40604C157 2.15775 154.421 0.335083 151.239 0.335083Z" fill="/*#C1C1C1*/"/>
	</symbol>


    <symbol id="microsoft" viewBox="0 0 195 56">
				<path d="M194.817 26.0163V22.583H190.567V17.2577L190.43 17.3035L186.438 18.5242L186.362 18.5547V22.583H180.055V20.34C180.055 19.2871 180.284 18.4937 180.756 17.9596C181.213 17.4256 181.868 17.1662 182.706 17.1662C183.3 17.1662 183.925 17.3035 184.549 17.5934L184.702 17.6697V14.0381L184.625 14.0076C184.047 13.7939 183.254 13.6871 182.264 13.6871C181.03 13.6871 179.903 13.9618 178.913 14.4959C177.922 15.0299 177.161 15.7929 176.612 16.7694C176.079 17.746 175.805 18.8599 175.805 20.1111V22.583H172.849V26.0163H175.805V40.4664H180.055V26.0163H186.362V35.2021C186.362 38.9863 188.145 40.8937 191.648 40.8937C192.227 40.8937 192.837 40.8326 193.446 40.6953C194.071 40.558 194.513 40.4206 194.756 40.2833L194.817 40.2528V36.7738L194.65 36.8958C194.421 37.0484 194.132 37.1705 193.797 37.2621C193.461 37.3536 193.172 37.3994 192.959 37.3994C192.136 37.3994 191.527 37.1705 191.146 36.7433C190.765 36.3008 190.567 35.5225 190.567 34.4544V26.0163H194.817ZM163.358 37.4146C161.82 37.4146 160.601 36.8958 159.748 35.8888C158.879 34.8817 158.453 33.4321 158.453 31.5858C158.453 29.6937 158.895 28.2136 159.748 27.176C160.601 26.1536 161.804 25.6348 163.328 25.6348C164.805 25.6348 165.979 26.1384 166.816 27.1149C167.654 28.1067 168.096 29.5716 168.096 31.4942C168.096 33.4321 167.7 34.9275 166.893 35.9193C166.085 36.9111 164.897 37.4146 163.358 37.4146ZM163.541 22.1558C160.601 22.1558 158.255 23.0256 156.594 24.7193C154.934 26.4283 154.08 28.7781 154.08 31.7231C154.08 34.5155 154.903 36.7738 156.533 38.4065C158.163 40.0544 160.372 40.8784 163.114 40.8784C165.963 40.8784 168.264 40.0087 169.924 38.2691C171.585 36.5449 172.438 34.2103 172.438 31.3264C172.438 28.4882 171.646 26.2147 170.077 24.582C168.507 22.9798 166.314 22.1558 163.541 22.1558ZM147.24 22.1558C145.245 22.1558 143.584 22.6746 142.32 23.6817C141.04 24.704 140.4 26.0315 140.4 27.649C140.4 28.4882 140.537 29.2359 140.811 29.8615C141.086 30.5024 141.512 31.0517 142.076 31.5247C142.639 31.9825 143.508 32.4708 144.666 32.9743C145.641 33.3711 146.357 33.7067 146.814 33.9814C147.255 34.2408 147.575 34.5002 147.758 34.7596C147.926 35.0037 148.017 35.3547 148.017 35.7667C148.017 36.9721 147.118 37.552 145.275 37.552C144.589 37.552 143.813 37.4146 142.959 37.1247C142.106 36.8501 141.314 36.4381 140.583 35.9193L140.4 35.7972V39.9018L140.461 39.9324C141.055 40.207 141.817 40.4512 142.716 40.6343C143.614 40.8174 144.422 40.9089 145.123 40.9089C147.301 40.9089 149.038 40.3901 150.318 39.383C151.597 38.3607 152.252 36.9874 152.252 35.3242C152.252 34.1187 151.902 33.0811 151.216 32.2572C150.531 31.4332 149.343 30.6702 147.682 29.9988C146.357 29.4648 145.519 29.0223 145.168 28.6866C144.833 28.3661 144.666 27.8931 144.666 27.3133C144.666 26.7945 144.879 26.3825 145.305 26.0468C145.747 25.7111 146.357 25.528 147.118 25.528C147.819 25.528 148.55 25.6348 149.266 25.8637C149.982 26.0773 150.622 26.3825 151.14 26.7335L151.308 26.8555V22.9645L151.247 22.934C150.759 22.7204 150.12 22.5525 149.343 22.3999C148.55 22.2321 147.85 22.1558 147.24 22.1558ZM129.325 37.4146C127.786 37.4146 126.567 36.8958 125.714 35.8888C124.846 34.8817 124.419 33.4321 124.419 31.5858C124.419 29.6937 124.861 28.2136 125.714 27.176C126.567 26.1536 127.771 25.6348 129.294 25.6348C130.772 25.6348 131.945 26.1384 132.783 27.1149C133.621 28.1067 134.063 29.5716 134.063 31.4942C134.063 33.4321 133.666 34.9275 132.859 35.9193C132.052 36.9111 130.879 37.4146 129.325 37.4146ZM129.507 22.1558C126.567 22.1558 124.221 23.0256 122.561 24.7193C120.9 26.4283 120.047 28.7934 120.047 31.7384C120.047 34.5307 120.87 36.789 122.5 38.4217C124.13 40.0697 126.339 40.8937 129.081 40.8937C131.93 40.8937 134.23 40.0239 135.891 38.2844C137.551 36.5602 138.404 34.2255 138.404 31.3416C138.404 28.5035 137.612 26.2299 136.043 24.5972C134.474 22.9798 132.28 22.1558 129.507 22.1558ZM113.603 25.6806V22.583H109.413V40.4512H113.603V31.3111C113.603 29.7547 113.953 28.473 114.654 27.5117C115.339 26.5656 116.254 26.0773 117.366 26.0773C117.746 26.0773 118.173 26.1384 118.63 26.2604C119.087 26.3825 119.407 26.5198 119.605 26.6572L119.788 26.7792V22.5373L119.727 22.5068C119.331 22.3389 118.782 22.2626 118.082 22.2626C117.03 22.2626 116.086 22.5983 115.279 23.2697C114.563 23.8648 114.06 24.6582 113.664 25.6653L113.603 25.6806ZM101.888 22.1558C99.968 22.1558 98.2465 22.5678 96.784 23.3918C95.3215 24.2157 94.1941 25.3754 93.4172 26.8555C92.6555 28.3356 92.2594 30.0599 92.2594 31.9978C92.2594 33.6915 92.6402 35.2326 93.3867 36.6059C94.1332 37.9792 95.1844 39.0473 96.525 39.7798C97.8656 40.5275 99.4043 40.8937 101.111 40.8937C103.106 40.8937 104.813 40.4969 106.168 39.7035L106.229 39.673V35.8277L106.046 35.9498C105.422 36.4076 104.736 36.7585 103.99 37.0179C103.243 37.2773 102.573 37.4146 101.979 37.4146C100.334 37.4146 99.0082 36.8958 98.0484 35.8735C97.0887 34.8512 96.6012 33.4168 96.6012 31.6163C96.6012 29.8005 97.1039 28.3356 98.1094 27.2523C99.1148 26.1689 100.44 25.6196 102.04 25.6196C103.426 25.6196 104.767 26.0926 106.031 27.0081L106.214 27.1302V23.0713L106.153 23.0408C105.681 22.7662 105.026 22.5525 104.218 22.3847C103.426 22.2473 102.634 22.1558 101.888 22.1558ZM89.3801 22.583H85.1906V40.4512H89.3801V22.583ZM87.3234 14.9841C86.6379 14.9841 86.0285 15.213 85.541 15.686C85.0383 16.1591 84.7945 16.7389 84.7945 17.4408C84.7945 18.1275 85.0383 18.7073 85.541 19.1651C86.0285 19.6228 86.6379 19.8517 87.3387 19.8517C88.0395 19.8517 88.6488 19.6228 89.1363 19.1651C89.6391 18.7073 89.8828 18.1275 89.8828 17.4408C89.8828 16.7694 89.6391 16.1896 89.1516 15.7013C88.6641 15.213 88.0395 14.9841 87.3234 14.9841ZM76.8422 21.2708V40.4664H81.123V15.5182H75.1969L67.6559 34.0424L60.3434 15.5182H54.1734V40.4512H58.1953V21.2708H58.3324L66.0562 40.4664H69.0879L76.6898 21.2708H76.8422Z" fill="/*#C1C1C1*/"/>
                <path d="M19.9265 26.9624H0.1828V7.18689H19.9265V26.9624Z" fill="/*#C1C1C1*/"/>
                <path d="M41.7269 26.9624H21.9832V7.18689H41.7269V26.9624Z" fill="/*#C1C1C1*/"/>
                <path d="M19.9265 48.8131H0.1828V29.0376H19.9265V48.8131Z" fill="/*#C1C1C1*/"/>
                <path d="M41.7269 48.8131H21.9832V29.0376H41.7269V48.8131Z" fill="/*#C1C1C1*/"/>
	</symbol>



    <symbol id="geographic" viewBox="0 0 143 43">
				<path fill-rule="evenodd" clip-rule="evenodd" d="M0.513 42.7033H29.6818V0.811523H0.513V42.7033ZM4.7172 38.4852H25.463V5.02958H4.7172V38.4852Z" fill="/*#C1C1C1*/"/>
                <path fill-rule="evenodd" clip-rule="evenodd" d="M49.0573 19.6064H47.2523C44.8831 16.2507 42.5317 12.9162 40.1843 9.14762H40.1673V19.6064H38.1721V5.02368H39.9787C42.3479 8.35659 44.6953 11.6676 47.0216 15.4159H47.0637V5.02368H49.0573V19.6064Z" fill="/*#C1C1C1*/"/>
                <path fill-rule="evenodd" clip-rule="evenodd" d="M54.7518 5.02393L49.7252 19.6066H51.8864L53.1507 15.6263H57.5395L58.6816 19.6066H61.4677L56.8312 5.02393H54.7518ZM53.7983 13.8349C54.3778 11.9177 54.9598 10.1474 55.4803 7.896H55.5224C56.1027 10.1474 56.624 11.9177 57.1639 13.8349H53.7983Z" fill="/*#C1C1C1*/"/>
                <path fill-rule="evenodd" clip-rule="evenodd" d="M63.8145 19.6064V6.97896H59.9883V5.02368H70.1305V6.97896H66.3075V19.6064H63.8145Z" fill="/*#C1C1C1*/"/>
                <mask id="mask0_1_458" style="mask-type:alpha" maskUnits="userSpaceOnUse" x="0" y="0" width="143" height="43">
                <path d="M0.513 42.7033H142.769V0.811523H0.513V42.7033Z" fill="white"/>
                </mask>
                <g mask="url(#mask0_1_458)">
                <path fill-rule="evenodd" clip-rule="evenodd" d="M70.9395 19.6066H73.4163V5.02393H70.9395V19.6066Z" fill="/*#C1C1C1*/"/>
                <path fill-rule="evenodd" clip-rule="evenodd" d="M81.1054 19.8532C84.9073 19.8532 87.2757 16.4594 87.2757 12.1034C87.2757 8.02168 84.6613 4.77234 81.1054 4.77234C77.5528 4.77234 74.927 8.02168 74.927 12.1034C74.927 16.4594 77.3003 19.8532 81.1054 19.8532ZM81.1054 17.7705C78.5047 17.7705 77.5909 14.896 77.5909 12.1034C77.5909 9.41715 78.6294 6.855 81.1054 6.855C83.5782 6.855 84.6135 9.41715 84.6135 12.1034C84.6135 14.896 83.7013 17.7705 81.1054 17.7705Z" fill="/*#C1C1C1*/"/>
                <path fill-rule="evenodd" clip-rule="evenodd" d="M99.6829 19.6064H97.8762C95.5046 16.2507 93.1556 12.9162 90.8091 9.14762H90.7888V19.6064H88.7968V5.02368H90.6018C92.9703 8.35659 95.3192 11.6676 97.6423 15.4159H97.686V5.02368H99.6829V19.6064Z" fill="/*#C1C1C1*/"/>
                <path fill-rule="evenodd" clip-rule="evenodd" d="M105.379 5.02393L100.35 19.6066H102.513L103.777 15.6263H108.163L109.308 19.6066H112.092L107.456 5.02393H105.379ZM104.421 13.8349C105.004 11.9177 105.583 10.1474 106.106 7.896H106.147C106.729 10.1474 107.248 11.9177 107.787 13.8349H104.421Z" fill="/*#C1C1C1*/"/>
                <path fill-rule="evenodd" clip-rule="evenodd" d="M112.816 5.02393H115.293V17.6473H120.216V19.6066H112.816V5.02393Z" fill="/*#C1C1C1*/"/>
                <path fill-rule="evenodd" clip-rule="evenodd" d="M47.5246 31.8035V37.8227C46.1931 38.3444 44.8001 38.7184 43.3908 38.7184C39.1089 38.7184 36.407 35.3839 36.407 31.0928C36.407 27.1125 39.1089 23.6351 43.4726 23.6351C44.8203 23.6351 46.1729 24.1382 47.0042 24.7604L46.1931 26.4894C45.5294 26.0764 44.4884 25.7218 43.5333 25.7218C40.8759 25.7218 39.0652 27.8256 39.0652 31.139C39.0652 34.5936 41.1455 36.6341 43.2856 36.6341C43.9477 36.6341 44.5119 36.5554 45.034 36.282V31.8035H47.5246Z" fill="/*#C1C1C1*/"/>
                <path fill-rule="evenodd" clip-rule="evenodd" d="M56.4438 25.8478H52.2825V29.8451H56.3563V31.8037H52.2825V36.5085H57.1876V38.4695H49.787V23.886H56.4438V25.8478Z" fill="/*#C1C1C1*/"/>
                <path fill-rule="evenodd" clip-rule="evenodd" d="M64.1327 38.718C67.9338 38.718 70.3014 35.3227 70.3014 30.9683C70.3014 26.8865 67.6845 23.6348 64.1327 23.6348C60.5744 23.6348 57.9583 26.8865 57.9583 30.9683C57.9583 35.3227 60.3235 38.718 64.1327 38.718ZM64.1327 36.6346C61.532 36.6346 60.6165 33.7625 60.6165 30.9683C60.6165 28.2844 61.6558 25.7215 64.1327 25.7215C66.6039 25.7215 67.6408 28.2844 67.6408 30.9683C67.6408 33.7625 66.7253 36.6346 64.1327 36.6346Z" fill="/*#C1C1C1*/"/>
                <path fill-rule="evenodd" clip-rule="evenodd" d="M82.2706 31.8035V37.8227C80.9383 38.3444 79.5501 38.7184 78.1352 38.7184C73.8557 38.7184 71.1522 35.3839 71.1522 31.0928C71.1522 27.1125 73.8557 23.6351 78.2202 23.6351C79.572 23.6351 80.9205 24.1382 81.7501 24.7604L80.9383 26.4894C80.2737 26.0764 79.2417 25.7218 78.2833 25.7218C75.6195 25.7218 73.8112 27.8256 73.8112 31.139C73.8112 34.5936 75.8915 36.6341 78.0324 36.6341C78.6994 36.6341 79.2571 36.5554 79.7792 36.282V31.8035H82.2706Z" fill="/*#C1C1C1*/"/>
                <path fill-rule="evenodd" clip-rule="evenodd" d="M93.3718 38.4692L90.436 32.4306C92.0363 31.5787 92.9558 29.8449 92.9558 28.0949C92.9558 25.2593 91.2285 23.8857 88.4408 23.8857H84.5563V38.4692H87.0558V32.9701H88.1769L90.5218 38.4692H93.3718ZM87.0558 25.8475H88.155C89.6266 25.8475 90.4595 26.6978 90.4595 28.2003C90.4595 30.1564 89.2769 31.0302 88.0919 31.0927C87.8418 31.1179 87.2582 31.1389 87.0558 31.1568V25.8475Z" fill="/*#C1C1C1*/"/>
                <path fill-rule="evenodd" clip-rule="evenodd" d="M98.4402 23.8861L93.4096 38.4696H95.5708L96.84 34.4884H101.227L102.364 38.4696H105.154L100.517 23.8861H98.4402ZM97.4851 32.6987C98.0655 30.7791 98.6458 29.0104 99.1687 26.7606H99.21C99.792 29.0104 100.311 30.7791 100.852 32.6987H97.4851Z" fill="/*#C1C1C1*/"/>
                <path fill-rule="evenodd" clip-rule="evenodd" d="M109.478 31.0928C109.219 31.1164 108.609 31.1358 108.437 31.1529V25.8476H109.556C111.011 25.8476 111.845 26.6979 111.845 28.1997C111.845 30.1566 110.664 31.0304 109.478 31.0928ZM109.828 23.8859H105.942V38.4694H108.437V32.9694H109.556C112.53 32.9694 114.34 30.5525 114.34 28.095C114.34 25.2586 112.613 23.8859 109.828 23.8859Z" fill="/*#C1C1C1*/"/>
                <path fill-rule="evenodd" clip-rule="evenodd" d="M125.893 38.4692H123.4V31.4521H118.22V38.4692H115.755V23.8857H118.22V29.4903H123.4V23.9271H125.893V38.4692Z" fill="/*#C1C1C1*/"/>
                <path fill-rule="evenodd" clip-rule="evenodd" d="M128.281 38.4698H130.76V23.8864H128.281V38.4698Z" fill="/*#C1C1C1*/"/>
                <path fill-rule="evenodd" clip-rule="evenodd" d="M141.977 26.5339C141.374 26.1574 140.38 25.7217 139.42 25.7217C136.88 25.7217 135.037 27.8255 135.037 31.1389C135.037 34.5943 137.071 36.634 139.484 36.634C140.441 36.634 141.332 36.3208 141.977 35.9038L142.665 37.7179C141.913 38.238 140.586 38.7183 139.383 38.7183C135.1 38.7183 132.397 35.3838 132.397 31.0927C132.397 27.1123 135.077 23.635 139.42 23.635C140.711 23.635 141.913 24.1802 142.77 24.7603L141.977 26.5339Z" fill="/*#C1C1C1*/"/>
                </g>
	</symbol>



    <symbol id="deloitte" viewBox="0 0 178 51">
				<path d="M168.288 37.333C168.288 34.7652 170.405 32.6505 172.974 32.6505C175.544 32.6505 177.66 34.7652 177.66 37.333C177.66 39.9009 175.544 42.0156 172.974 42.0156C170.405 42.0911 168.288 39.9764 168.288 37.333Z" fill="/*#C1C1C1*/"/>
                <path d="M18.3422 24.9471C18.3422 22.0016 17.7375 19.7359 16.6039 18.3009C15.4702 16.866 13.7318 16.1107 11.3889 16.1107H8.89497V34.3121H10.7844C13.3541 34.3121 15.319 33.5569 16.5282 31.9709C17.7375 30.4604 18.3422 28.1191 18.3422 24.9471ZM27.2602 24.645C27.2602 30.0828 25.8244 34.2366 22.8769 37.1821C19.9293 40.1275 15.8481 41.5625 10.5576 41.5625H0.278992V9.08691H11.2378C16.3015 9.08691 20.2316 10.4464 23.028 13.0898C25.8999 15.7331 27.2602 19.5849 27.2602 24.645Z" fill="/*#C1C1C1*/"/>
                <path d="M55.6775 41.5625H63.8399V8.93591H55.6775V41.5625Z" fill="/*#C1C1C1*/"/>
                <path d="M75.3279 29.4031C75.3279 31.5178 75.6302 33.1038 76.1593 34.1611C76.6883 35.2185 77.5952 35.8227 78.88 35.8227C80.1648 35.8227 81.0718 35.294 81.6008 34.1611C82.1299 33.1038 82.3566 31.5178 82.3566 29.4031C82.3566 27.3639 82.1299 25.7779 81.6008 24.7205C81.0718 23.6632 80.1648 23.1346 78.88 23.1346C77.5952 23.1346 76.7639 23.6632 76.1593 24.7205C75.6302 25.7024 75.3279 27.2884 75.3279 29.4031ZM90.6702 29.4031C90.6702 33.3304 89.612 36.4269 87.5714 38.6926C85.4552 40.8828 82.5834 42.0157 78.8045 42.0157C75.1768 42.0157 72.3804 40.8828 70.2642 38.6171C68.148 36.3513 67.09 33.2548 67.09 29.4031C67.09 25.4758 68.1479 22.3793 70.1885 20.1891C72.3047 17.9989 75.1767 16.9415 78.9556 16.9415C81.2985 16.9415 83.3391 17.4702 85.153 18.452C86.9668 19.4338 88.3272 20.9443 89.3097 22.8324C90.2167 24.645 90.6702 26.8352 90.6702 29.4031Z" fill="/*#C1C1C1*/"/>
                <path d="M93.9199 41.5626H102.082V29.101V17.3192H93.9199V41.5626Z" fill="/*#C1C1C1*/"/>
                <path d="M93.9199 14.3736H102.082V8.93591H93.9199V14.3736Z" fill="/*#C1C1C1*/"/>
                <path d="M118.634 35.3695C119.767 35.3695 121.052 35.0674 122.564 34.5387V40.6562C121.43 41.1094 120.448 41.487 119.39 41.7135C118.407 41.9401 117.198 42.0157 115.913 42.0157C113.192 42.0157 111.227 41.3359 109.942 39.9765C108.733 38.617 108.128 36.5023 108.128 33.6324V23.6632H105.257V17.3191H108.128V11.1261L116.366 9.69116V17.3191H121.581V23.5876H116.366V33.0282C116.442 34.6142 117.198 35.3695 118.634 35.3695Z" fill="/*#C1C1C1*/"/>
                <path d="M137.528 35.3695C138.662 35.3695 139.947 35.0674 141.458 34.5387V40.6562C140.325 41.1094 139.342 41.487 138.284 41.7135C137.302 41.9401 136.092 42.0157 134.808 42.0157C132.087 42.0157 130.122 41.3359 128.912 39.9765C127.703 38.617 127.099 36.5023 127.099 33.6324V23.6632H124.227V17.3191H127.099V11.0506L135.337 9.69116V17.3191H140.551V23.5876H135.337V33.0282C135.337 34.6142 136.092 35.3695 137.528 35.3695Z" fill="/*#C1C1C1*/"/>
                <path d="M151.813 26.4575C151.888 25.0981 152.266 24.1918 152.946 23.5121C153.626 22.9079 154.382 22.6058 155.365 22.6058C156.423 22.6058 157.254 22.9835 157.859 23.6632C158.463 24.3429 158.841 25.3247 158.841 26.4575H151.813ZM163.376 19.7359C161.411 17.8478 158.69 16.866 155.138 16.866C151.359 16.866 148.487 17.9233 146.522 20.1135C144.481 22.3037 143.499 25.4758 143.499 29.5541C143.499 33.4814 144.557 36.5779 146.749 38.6925C148.941 40.8072 151.964 41.9401 155.969 41.9401C157.859 41.9401 159.521 41.789 160.882 41.5625C162.242 41.3359 163.527 40.8827 164.812 40.203L163.527 34.7653C162.62 35.1429 161.713 35.445 160.882 35.596C159.673 35.8981 158.388 36.0492 156.952 36.0492C155.365 36.0492 154.156 35.6716 153.249 34.9163C152.342 34.1611 151.888 33.1037 151.813 31.7443H166.399V28.0436C166.248 24.4184 165.265 21.624 163.376 19.7359Z" fill="/*#C1C1C1*/"/>
                <path d="M38.1436 26.4575C38.2192 25.0981 38.5971 24.1918 39.2773 23.5121C39.9575 22.9079 40.7132 22.6058 41.6957 22.6058C42.7538 22.6058 43.5852 22.9835 44.1898 23.6632C44.7944 24.3429 45.0968 25.3247 45.1724 26.4575H38.1436ZM49.6314 19.7359C47.6664 17.8478 44.9456 16.866 41.3935 16.866C37.6146 16.866 34.7425 17.9233 32.7775 20.1135C30.8125 22.3037 29.7544 25.4758 29.7544 29.5541C29.7544 33.4814 30.8125 36.5779 33.0043 38.6925C35.196 40.8072 38.2192 41.9401 42.1493 41.9401C44.0387 41.9401 45.7014 41.789 47.0618 41.5625C48.4222 41.3359 49.707 40.8827 50.9918 40.203L49.707 34.7653C48.8001 35.1429 47.8932 35.445 47.0618 35.596C45.8526 35.8981 44.5676 36.0492 43.1316 36.0492C41.5445 36.0492 40.3353 35.6716 39.4284 34.9163C38.5215 34.1611 38.0681 33.1037 37.9925 31.7443H52.5788V28.0436C52.5788 24.4184 51.5964 21.624 49.6314 19.7359Z" fill="/*#C1C1C1*/"/>
	</symbol>



</svg>