<svg display="none" xmlns="http://www.w3.org/2000/svg">

	<symbol id="instagram" viewBox="0 0 22 22">
				<path d="M16.0448 0H5.95519C2.67144 0 0 2.67144 0 5.95519V16.0449C0 19.3285 2.67144 22 5.95519 22H16.0449C19.3285 22 22 19.3285 22 16.0449V5.95519C22 2.67144 19.3285 0 16.0448 0V0ZM20.7102 16.0449C20.7102 18.6174 18.6174 20.7102 16.0448 20.7102H5.95519C3.38261 20.7102 1.28973 18.6174 1.28973 16.0449V5.95519C1.28973 3.38261 3.38261 1.28973 5.95519 1.28973H16.0449C18.6174 1.28973 20.7102 3.38261 20.7102 5.95519V16.0449Z" fill=""/>
                <path d="M11 4.98438C7.683 4.98438 4.98453 7.68284 4.98453 10.9998C4.98453 14.3168 7.683 17.0153 11 17.0153C14.317 17.0153 17.0154 14.3168 17.0154 10.9998C17.0154 7.68284 14.317 4.98438 11 4.98438ZM11 15.7255C8.39433 15.7255 6.27426 13.6056 6.27426 10.9998C6.27426 8.39417 8.39433 6.27411 11 6.27411C13.6058 6.27411 15.7257 8.39417 15.7257 10.9998C15.7257 13.6056 13.6058 15.7255 11 15.7255Z" fill=""/>
                <path d="M17.1593 2.84814C16.179 2.84814 15.3818 3.64558 15.3818 4.62564C15.3818 5.60586 16.179 6.4033 17.1593 6.4033C18.1395 6.4033 18.9369 5.60586 18.9369 4.62564C18.9369 3.64541 18.1395 2.84814 17.1593 2.84814ZM17.1593 5.1134C16.8904 5.1134 16.6715 4.89453 16.6715 4.62564C16.6715 4.35658 16.8904 4.13788 17.1593 4.13788C17.4283 4.13788 17.6472 4.35658 17.6472 4.62564C17.6472 4.89453 17.4283 5.1134 17.1593 5.1134Z" fill=""/>
	</symbol>

    <symbol id="twitter" viewBox="0 0 25 22">
				<path d="M25 3.22866C23.4274 3.30404 23.4617 3.29789 23.284 3.31337L24.2153 0.547177C24.2153 0.547177 21.3081 1.65941 20.5711 1.85836C18.6356 0.0490841 15.7585 -0.0308567 13.7016 1.2839C12.0172 2.36082 11.1132 4.21017 11.4147 6.37175C8.13656 5.89865 5.37453 4.28257 3.19385 1.55824L2.50416 0.696743L1.98879 1.68103C1.33743 2.92477 1.12114 4.34684 1.37959 5.68521C1.48563 6.23428 1.66588 6.75796 1.91555 7.24832L1.32389 7.00988L1.2537 8.03801C1.18256 9.08239 1.51691 10.3015 2.14825 11.2989C2.32601 11.5798 2.55489 11.8883 2.845 12.1925L2.53925 12.1438L2.91233 13.3218C3.40271 14.8697 4.42123 16.0672 5.74303 16.7329C4.42295 17.3155 3.35655 17.6872 1.6037 18.2869L0 18.8352L1.48125 19.6774C2.04601 19.9986 4.04167 21.0711 6.01349 21.3929C10.3966 22.1078 15.3315 21.5256 18.6537 18.4138C21.4519 15.7929 22.3701 12.0646 22.1794 8.1848C22.1506 7.59744 22.3053 7.03686 22.615 6.60661C23.2355 5.74511 24.9962 3.23442 25 3.22866ZM21.4437 5.69413C20.9293 6.40844 20.6716 7.32072 20.7178 8.26256C20.9103 12.1761 19.8864 15.2111 17.6744 17.2828C15.0906 19.703 10.9228 20.653 6.24027 19.8891C5.39226 19.7508 4.51584 19.4412 3.79047 19.1319C5.26009 18.6061 6.39496 18.1373 8.22773 17.2352L10.7862 15.9758L7.96146 15.7877C6.60839 15.6976 5.48172 15.0157 4.78916 13.9084C5.1569 13.8862 5.51147 13.8243 5.86452 13.7219L8.55865 12.9416L5.84202 12.2497C4.52194 11.9134 3.76949 11.092 3.37067 10.462C3.10879 10.048 2.9377 9.62393 2.83508 9.23295C3.10745 9.30893 3.42503 9.36308 3.93715 9.41584L6.45161 9.67451L4.45938 8.05824C3.02391 6.89384 2.44865 5.14447 2.87037 3.46273C7.35035 8.29529 12.6104 7.93208 13.1399 8.05983C13.0234 6.88253 13.0203 6.87976 12.9898 6.76768C12.3117 4.27484 13.7978 3.00908 14.468 2.58061C15.868 1.68579 18.0902 1.5509 19.6295 3.02514C19.9619 3.34332 20.4115 3.46849 20.8322 3.35978C21.2099 3.26219 21.5198 3.15884 21.8233 3.04637L21.1916 4.9225L21.998 4.92309C21.8458 5.13534 21.6633 5.38945 21.4437 5.69413Z" fill=""/>
	</symbol>

    <symbol id="youtube" viewBox="0 0 24 20">
				<path d="M15.8883 9.40375L10.2633 5.88813C10.0465 5.75266 9.77328 5.74549 9.54974 5.86938C9.32614 5.99327 9.18744 6.22877 9.18744 6.48438V13.5156C9.18744 13.7712 9.32614 14.0067 9.54974 14.1306C9.65595 14.1895 9.77333 14.2188 9.89056 14.2188C10.0201 14.2188 10.1494 14.183 10.2632 14.1119L15.8882 10.5963C16.0938 10.4678 16.2187 10.2424 16.2187 10C16.2187 9.75757 16.0939 9.53224 15.8883 9.40375ZM10.5937 12.247V7.75296L14.189 10L10.5937 12.247Z" fill=""/>
                <path d="M20.4844 0.859375H3.51562C1.57711 0.859375 0 2.43648 0 4.375V15.625C0 17.5635 1.57711 19.1406 3.51562 19.1406H20.4844C22.4229 19.1406 24 17.5635 24 15.625V4.375C24 2.43648 22.4229 0.859375 20.4844 0.859375ZM22.5938 15.625C22.5938 16.7881 21.6475 17.7344 20.4844 17.7344H3.51562C2.35252 17.7344 1.40625 16.7881 1.40625 15.625V4.375C1.40625 3.21189 2.35252 2.26562 3.51562 2.26562H20.4844C21.6475 2.26562 22.5938 3.21189 22.5938 4.375V15.625Z" fill=""/>

	</symbol>

    <symbol id="facebook" viewBox="0 0 21 21">
				<path d="M18.5391 0H2.46094C1.10398 0 0 1.10398 0 2.46094V18.5391C0 19.896 1.10398 21 2.46094 21H18.5391C19.896 21 21 19.896 21 18.5391V2.46094C21 1.10398 19.896 0 18.5391 0ZM19.3594 18.5391C19.3594 18.9914 18.9914 19.3594 18.5391 19.3594H13.8633V12.6738H16.3976L16.8164 10.1309H13.8633V8.36719C13.8633 7.67095 14.3975 7.13672 15.0938 7.13672H16.7754V4.59375H15.0938C13.0051 4.59375 11.3212 6.28564 11.3212 8.37432V10.1309H8.85938V12.6738H11.3212V19.3594H2.46094C2.00862 19.3594 1.64062 18.9914 1.64062 18.5391V2.46094C1.64062 2.00862 2.00862 1.64062 2.46094 1.64062H18.5391C18.9914 1.64062 19.3594 2.00862 19.3594 2.46094V18.5391Z" fill=""/>
	</symbol>

</svg>

