<svg display="none" xmlns="http://www.w3.org/2000/svg">
    <symbol id="design" viewBox="0 0 50 45">
        <path d="M50.175 24.6598V24.6584L49.4794 23.9066L49.5398 23.7423L49.5397 23.7423L38.3202 19.6134V6.37653V6.20153H38.3193C38.3384 5.78651 38.0896 5.39231 37.6844 5.24632C37.6842 5.24624 37.684 5.24615 37.6837 5.24607L25.8309 0.884792C25.8308 0.884743 25.8306 0.884694 25.8305 0.884645C25.6172 0.805119 25.3828 0.805119 25.1695 0.884644C25.1694 0.884693 25.1692 0.884742 25.1691 0.884792L13.315 5.24652L13.3144 5.24673C13.0502 5.34503 12.8444 5.55329 12.7456 5.81362H12.6798V5.98862V19.6134L1.46019 23.7423L1.45961 23.7426C1.19537 23.8409 0.989598 24.0491 0.890798 24.3094H0.825V24.4844V38.6632V38.8382H0.825463C0.825294 39.2392 1.07159 39.6106 1.46032 39.7533L13.314 44.1149C13.314 44.1149 13.3141 44.1149 13.3142 44.115C13.5276 44.195 13.7625 44.195 13.976 44.115C13.9761 44.115 13.9762 44.1149 13.9763 44.1149L25.5 39.8745L37.0237 44.1149C37.0237 44.1149 37.0238 44.1149 37.0239 44.115C37.2374 44.195 37.4723 44.195 37.6858 44.115C37.6859 44.1149 37.6859 44.1149 37.686 44.1149L49.5398 39.7533C49.7906 39.661 49.9898 39.469 50.0942 39.2261H50.175V39.0511L50.175 24.8724L50.175 24.8716V24.8715L50.175 24.8712L50.175 24.87L50.175 24.8655L50.1749 24.8485L50.1748 24.7922C50.1747 24.7478 50.1747 24.6951 50.175 24.6598ZM12.6798 29.7034V41.8066L2.75565 38.1552V26.051L12.6798 29.7034ZM13.5829 21.3557L22.6193 24.6814L13.6452 27.9831L4.60971 24.6584L13.5829 21.3557ZM24.5347 26.051V38.1552L14.6105 41.8066V29.7034L24.5347 26.051ZM24.5347 11.2075V23.2658L14.6105 19.6134V7.5552L24.5347 11.2075ZM16.4646 6.16258L25.5 2.83785L34.5354 6.16258L25.5 9.48732L16.4646 6.16258ZM26.4653 11.2075L36.3895 7.5552V19.6134L26.4653 23.2658V11.2075ZM36.3895 29.7034V41.8066L26.4653 38.1552V26.051L36.3895 29.7034ZM46.3903 24.6584L37.3548 27.9831L28.3807 24.6814L37.4171 21.3557L46.3903 24.6584ZM48.2444 26.051V38.1552L38.3202 41.8066V29.7034L48.2444 26.051Z" fill="" stroke="#FC85B4" stroke-width="0.35"/>
    </symbol>   

    <symbol id="Development" viewBox="0 0 43 43">
				<path d="M6.30311 0H1.26548C0.570005 0 0.00613403 0.563871 0.00613403 1.25943V6.38105C0.00613403 7.07661 0.569921 7.64048 1.26556 7.64048C1.96112 7.64048 2.52499 7.07661 2.52499 6.38105V2.51886H6.3032C6.99876 2.51886 7.56263 1.95499 7.56263 1.25943C7.56254 0.563871 6.99867 0 6.30311 0Z" fill=""/>
                <path d="M41.7345 0H36.6969C36.0013 0 35.4375 0.563871 35.4375 1.25943C35.4375 1.95499 36.0013 2.51886 36.6969 2.51886H40.4751V6.38105C40.4751 7.07661 41.039 7.64048 41.7345 7.64048C42.4301 7.64048 42.994 7.07661 42.994 6.38105V1.25943C42.994 0.563871 42.4301 0 41.7345 0Z" fill=""/>
                <path d="M6.30311 40.469H2.5249V36.6068C2.5249 35.9113 1.96103 35.3474 1.26547 35.3474C0.569914 35.3474 0.00604248 35.9113 0.00604248 36.6068V41.7285C0.00604248 42.424 0.56983 42.9879 1.26547 42.9879H6.30311C6.99867 42.9879 7.56254 42.424 7.56254 41.7285C7.56254 41.0329 6.99867 40.469 6.30311 40.469Z" fill=""/>
                <path d="M41.7345 35.3474C41.039 35.3474 40.4751 35.9113 40.4751 36.6068V40.469H36.6969C36.0013 40.469 35.4375 41.0329 35.4375 41.7285C35.4375 42.424 36.0013 42.9879 36.6969 42.9879H41.7345C42.4301 42.9879 42.994 42.424 42.994 41.7285V36.6068C42.994 35.9113 42.4301 35.3474 41.7345 35.3474Z" fill=""/>
                <path d="M39.6717 10.332L22.1313 0.16969C21.7409 -0.0565635 21.259 -0.0565635 20.8686 0.16969L3.32107 10.3319C2.93423 10.556 2.69278 10.9734 2.69278 11.4208C2.69278 11.4233 2.69303 11.4259 2.69303 11.4283V31.5782C2.69303 32.0299 2.93852 32.4527 3.33383 32.6753L20.8687 42.8303C21.0576 42.9397 21.2823 43 21.5001 43C21.7274 43 21.9496 42.9356 22.1315 42.8303L39.6592 32.6752C39.6621 32.6735 39.665 32.6718 39.6679 32.6701C40.0742 32.377 40.2931 32.1307 40.2992 31.5934C40.2993 31.5883 40.2997 31.5834 40.2997 31.5783V11.4285C40.2997 11.4259 40.3 11.4234 40.3 11.421C40.3 10.9731 40.0584 10.5557 39.6717 10.332ZM20.2406 39.5554L6.48174 31.5839L17.0889 25.501C17.6923 25.155 17.9009 24.3853 17.5548 23.782C17.2089 23.1786 16.4393 22.97 15.8358 23.316L5.21164 29.4042V13.5978L20.2406 22.2289V39.5554ZM21.5 20.0475L6.47989 11.4172L21.5 2.71492L36.5201 11.4172L21.5 20.0475ZM37.7891 29.4042L27.1642 23.316C26.5608 22.97 25.7912 23.1785 25.4452 23.7819C25.0991 24.3853 25.3077 25.1549 25.9111 25.5009L36.5183 31.5837L22.7593 39.5553V22.2289L37.789 13.5978V29.4042H37.7891Z" fill=""/>
	</symbol>

    <symbol id="Branding" viewBox="0 0 299.963 299.963">
            <g>
                <path d="M283.163,59.856h-65.471V31.364c0-3.976-3.224-7.2-7.2-7.2H89.471c-3.976,0-7.2,3.224-7.2,7.2v28.493H16.8
                    c-9.263,0-16.8,7.537-16.8,16.8c0,8.011,0,174.346,0,182.342c0,9.263,7.537,16.8,16.8,16.8h266.363c9.263,0,16.8-7.537,16.8-16.8
                    c0-7.99,0-174.324,0-182.342C299.963,67.393,292.426,59.856,283.163,59.856z M96.671,38.564h106.62v21.292H96.671V38.564z
                    M285.563,258.999c0,1.324-1.076,2.4-2.4,2.4H16.8c-1.323,0-2.4-1.076-2.4-2.4v-83.971h98.381v13.968c0,3.977,3.224,7.2,7.2,7.2
                    h60c3.977,0,7.2-3.223,7.2-7.2v-13.968h98.382V258.999z M127.181,181.796v-13.968V153.86h45.6v13.968v13.968H127.181z
                    M285.563,160.628h-98.382V146.66c0-3.977-3.223-7.2-7.2-7.2h-60c-3.976,0-7.2,3.223-7.2,7.2v13.968H14.4V76.656
                    c0-1.324,1.077-2.4,2.4-2.4h266.363c1.324,0,2.4,1.076,2.4,2.4V160.628z"/>
            </g>      
	</symbol>

    <symbol id="Illustration" viewBox="0 0 64 64">
        <g>
	<path d="M52,64c2.206,0,4-1.794,4-4V4c0-2.206-1.794-4-4-4H26c-1.638,0-3.668,0.841-4.828,2L10,13.171C8.841,14.33,8,16.36,8,18v42
		c0,2.206,1.794,4,4,4H52z M52,4l0,56h0H12V18h10c2.206,0,4-1.794,4-4V4H52z M22,6.828V14h-7.172L22,6.828z"/>
	<path d="M32,16h12c1.104,0,2-0.896,2-2s-0.896-2-2-2H32c-1.104,0-2,0.896-2,2S30.896,16,32,16z"/>
	<path d="M44,22H20c-1.104,0-2,0.896-2,2s0.896,2,2,2h24c1.104,0,2-0.896,2-2S45.104,22,44,22z"/>
	<path d="M44,32H20c-1.104,0-2,0.896-2,2s0.896,2,2,2h24c1.104,0,2-0.896,2-2S45.104,32,44,32z"/>
	<path d="M44,42H20c-1.104,0-2,0.896-2,2s0.896,2,2,2h24c1.104,0,2-0.896,2-2S45.104,42,44,42z"/>
	<path d="M44,52H20c-1.104,0-2,0.896-2,2s0.896,2,2,2h24c1.104,0,2-0.896,2-2S45.104,52,44,52z"/>
</g>
	</symbol>


</svg>


	
